<svg width="19" height="19" viewBox="0 0 19 19" fill="none" xmlns="http://www.w3.org/2000/svg">
<path d="M16.5006 13.5731C16.2372 14.1815 15.9254 14.7417 15.5642 15.2566C15.0718 15.9586 14.6687 16.4446 14.358 16.7144C13.8764 17.1573 13.3603 17.3842 12.8077 17.3971C12.411 17.3971 11.9326 17.2842 11.3758 17.0552C10.817 16.8273 10.3036 16.7144 9.83411 16.7144C9.34173 16.7144 8.81365 16.8273 8.24881 17.0552C7.68311 17.2842 7.22739 17.4035 6.87896 17.4154C6.34906 17.4379 5.82088 17.2046 5.29367 16.7144C4.95717 16.4209 4.53628 15.9178 4.03207 15.205C3.4911 14.4439 3.04634 13.5612 2.69791 12.555C2.32476 11.4681 2.1377 10.4156 2.1377 9.39662C2.1377 8.22942 2.38991 7.22272 2.89508 6.37911C3.2921 5.7015 3.82028 5.16697 4.48134 4.77457C5.1424 4.38217 5.85668 4.18221 6.62589 4.16942C7.04678 4.16942 7.59872 4.29961 8.28461 4.55547C8.96857 4.8122 9.40774 4.94239 9.60028 4.94239C9.74423 4.94239 10.2321 4.79016 11.0591 4.48667C11.8413 4.20522 12.5014 4.08868 13.0421 4.13458C14.5074 4.25284 15.6083 4.83048 16.3404 5.87114C15.0299 6.66519 14.3816 7.77735 14.3945 9.20408C14.4064 10.3154 14.8095 11.2402 15.6019 11.9744C15.9609 12.3152 16.3619 12.5786 16.8081 12.7657C16.7113 13.0463 16.6092 13.315 16.5006 13.5731V13.5731ZM13.1399 0.348616C13.1399 1.21965 12.8217 2.03293 12.1874 2.78569C11.422 3.68058 10.4961 4.19769 9.49213 4.11609C9.47934 4.0116 9.47192 3.90162 9.47192 3.78605C9.47192 2.94986 9.83594 2.05497 10.4824 1.32327C10.8051 0.952805 11.2156 0.644765 11.7133 0.399036C12.21 0.156973 12.6798 0.0231071 13.1217 0.000183105C13.1346 0.116627 13.1399 0.233077 13.1399 0.348604V0.348616Z" fill="black"/>
</svg>
