<svg width="19" height="19" viewBox="0 0 19 19" fill="none" xmlns="http://www.w3.org/2000/svg">
<g clip-path="url(#clip0_172_3087)">
<path d="M18.815 9.71882C18.815 9.07304 18.7626 8.42376 18.6509 7.78845H9.69019V11.4467H14.8216C14.6086 12.6266 13.9244 13.6703 12.9226 14.3336V16.7072H15.984C17.7817 15.0526 18.815 12.6091 18.815 9.71882Z" fill="#4285F4"/>
<path d="M9.68988 19.0006C12.2521 19.0006 14.4128 18.1594 15.9871 16.7072L12.9258 14.3335C12.074 14.913 10.9745 15.2411 9.69337 15.2411C7.21496 15.2411 5.11354 13.5691 4.35954 11.321H1.20044V13.768C2.81315 16.976 6.09792 19.0006 9.68988 19.0006V19.0006Z" fill="#34A853"/>
<path d="M4.35636 11.321C3.95842 10.1412 3.95842 8.86355 4.35636 7.68369V5.23669H1.20075C-0.146669 7.92106 -0.146669 11.0837 1.20075 13.768L4.35636 11.321V11.321Z" fill="#FBBC04"/>
<path d="M9.68988 3.76015C11.0443 3.7392 12.3533 4.24885 13.3342 5.18436L16.0465 2.47207C14.329 0.859358 12.0496 -0.0272856 9.68988 0.000640194C6.09792 0.000640194 2.81315 2.02526 1.20044 5.23672L4.35605 7.68372C5.10656 5.4322 7.21146 3.76015 9.68988 3.76015V3.76015Z" fill="#EA4335"/>
</g>
<defs>
<clipPath id="clip0_172_3087">
<rect width="19" height="19" fill="white"/>
</clipPath>
</defs>
</svg>
