<svg width="21" height="20" viewBox="0 0 21 20" fill="none" xmlns="http://www.w3.org/2000/svg">
<path d="M19.2509 10.1944C19.2509 9.47495 19.1913 8.94995 19.0624 8.40552H10.6795V11.6527H15.6C15.5009 12.4597 14.9652 13.675 13.7747 14.4916L13.758 14.6003L16.4085 16.6126L16.5921 16.6305C18.2786 15.1041 19.2509 12.8583 19.2509 10.1944Z" fill="#4285F4"/>
<path d="M10.6793 18.75C13.09 18.75 15.1138 17.9722 16.592 16.6305L13.7745 14.4916C13.0206 15.0068 12.0086 15.3666 10.6793 15.3666C8.31822 15.3666 6.31428 13.8402 5.59992 11.7305L5.49522 11.7392L2.73917 13.8295L2.70312 13.9277C4.17136 16.786 7.18723 18.75 10.6793 18.75Z" fill="#34A853"/>
<path d="M5.60004 11.7305C5.41155 11.186 5.30247 10.6027 5.30247 9.99992C5.30247 9.3971 5.41155 8.81379 5.59012 8.26935L5.58513 8.1534L2.79454 6.02954L2.70323 6.0721C2.0981 7.25823 1.75088 8.5902 1.75088 9.99992C1.75088 11.4096 2.0981 12.7415 2.70323 13.9277L5.60004 11.7305Z" fill="#FBBC05"/>
<path d="M10.6794 4.63331C12.3559 4.63331 13.4868 5.34303 14.1317 5.93612L16.6516 3.525C15.104 2.11528 13.09 1.25 10.6794 1.25C7.18725 1.25 4.17137 3.21387 2.70312 6.07218L5.59002 8.26944C6.3143 6.15972 8.31825 4.63331 10.6794 4.63331Z" fill="#EB4335"/>
</svg>
